Coordinates
version=1
nRows=17
nColumns=24
inDegrees=yes

Units are S.I. units (second, meters, Newtons, ...)
Angles are in degrees.

endheader
time	pelvis_tilt	pelvis_list	pelvis_rotation	pelvis_tx	pelvis_ty	pelvis_tz	hip_flexion_r	hip_adduction_r	hip_rotation_r	knee_angle_r	ankle_angle_r	subtalar_angle_r	mtp_angle_r	hip_flexion_l	hip_adduction_l	hip_rotation_l	knee_angle_l	ankle_angle_l	subtalar_angle_l	mtp_angle_l	lumbar_extension	lumbar_bending	lumbar_rotation
      1.95000000	     61.93491522	      0.62208373	     -3.48719358	      0.54219539	      1.00148709	     -0.29645504	     12.59629118	    -10.70433494	     20.75553636	      6.48210630	    -23.03589371	      5.20478393	    -22.92570157	     -3.97992871	     -7.42759184	      1.36082192	    -54.68025354	     -2.32625031	     10.21549275	    -30.90883619	      0.00000000	      0.00000000	      0.00000000
      1.96000000	     62.02163308	      0.64719401	     -3.42492339	      0.54225652	      1.00169921	     -0.29653826	     12.45429469	    -10.76728552	     20.68970024	      6.52645865	    -23.00185166	      5.20121345	    -22.97240280	     -4.09590796	     -7.39036620	      1.42563395	    -54.63147915	     -2.33152957	     10.20495445	    -30.91761170	      0.00000000	      0.00000000	      0.00000000
      1.97000000	     62.10170018	      0.67280022	     -3.37436925	      0.54233980	      1.00191140	     -0.29661273	     12.32841689	    -10.82798192	     20.63710770	      6.56284598	    -22.97535165	      5.19921250	    -23.01527737	     -4.20392786	     -7.34983891	      1.47766763	    -54.58998947	     -2.33580303	     10.19680875	    -30.92549064	      0.00000000	      0.00000000	      0.00000000
      1.98000000	     62.16047387	      0.69503032	     -3.35137749	      0.54236838	      1.00200510	     -0.29664278	     12.24791047	    -10.87283811	     20.61019658	      6.58442773	    -22.96221874	      5.20060269	    -23.05035241	     -4.27882515	     -7.31354611	      1.50488462	    -54.56469822	     -2.33793313	     10.19302439	    -30.93018858	      0.00000000	      0.00000000	      0.00000000
      1.99000000	     62.18640079	      0.71145423	     -3.36284710	      0.54232997	      1.00194874	     -0.29663529	     12.23072515	    -10.89249647	     20.61450744	      6.58799307	    -22.96526426	      5.20624820	    -23.07464298	     -4.30382945	     -7.28850626	      1.50201438	    -54.56043638	     -2.33721506	     10.19462561	    -30.92982321	      0.00000000	      0.00000000	      0.00000000
      2.00000000	     62.17340676	      0.71970796	     -3.40385868	      0.54226871	      1.00179517	     -0.29660545	     12.27943689	    -10.88543410	     20.64751040	      6.57429107	    -22.98367187	      5.21560940	    -23.08659585	     -4.27494137	     -7.27855065	      1.47104471	    -54.57668066	     -2.33353417	     10.20159009	    -30.92338583	      0.00000000	      0.00000000	      0.00000000
      2.01000000	     62.12325058	      0.71775429	     -3.46085946	      0.54221974	      1.00160722	     -0.29654861	     12.38188101	    -10.85774963	     20.70007342	      6.54744043	    -23.01344448	      5.22685848	    -23.08631861	     -4.20063848	     -7.28326363	      1.42009015	    -54.60772336	     -2.32738691	     10.21294024	    -30.91107915	      0.00000000	      0.00000000	      0.00000000
      2.02000000	     62.04583087	      0.70651487	     -3.51808941	      0.54220206	      1.00144328	     -0.29647608	     12.51539817	    -10.81945697	     20.75979730	      6.51354582	    -23.04874565	      5.23752584	    -23.07556252	     -4.09824905	     -7.29915044	      1.36115687	    -54.64470134	     -2.31979958	     10.22696936	    -30.89441777	      0.00000000	      0.00000000	      0.00000000
      2.03000000	     61.95692478	      0.69045484	     -3.56375677	      0.54221598	      1.00133656	     -0.29641945	     12.65353794	    -10.78045343	     20.81474298	      6.47909171	    -23.08357844	      5.24528554	    -23.05741631	     -3.98883648	     -7.32102616	      1.30675932	    -54.67871912	     -2.31213789	     10.24162984	    -30.87602840	      0.00000000	      0.00000000	      0.00000000
      2.04000000	     61.87419032	      0.67510005	     -3.59299148	      0.54224289	      1.00127737	     -0.29639289	     12.77308984	    -10.74819415	     20.85625163	      6.44964681	    -23.11317564	      5.24855247	    -23.03571221	     -3.89203067	     -7.34289797	      1.26627748	    -54.70359579	     -2.30579436	     10.25499466	    -30.85914596	      0.00000000	      0.00000000	      0.00000000
      2.05000000	     61.81250016	      0.66438955	     -3.60687680	      0.54226562	      1.00124340	     -0.29638284	     12.85890337	    -10.72686969	     20.88024441	      6.42900326	    -23.13471825	      5.24680673	    -23.01421627	     -3.82200117	     -7.35910862	      1.24364997	    -54.71713557	     -2.30181658	     10.26561768	    -30.84689676	      0.00000000	      0.00000000	      0.00000000
      2.06000000	     61.78006556	      0.65984850	     -3.60958251	      0.54227809	      1.00122418	     -0.29637357	     12.90543508	    -10.71735886	     20.88704240	      6.41872116	    -23.14731957	      5.24067576	    -22.99572961	     -3.78532420	     -7.36588639	      1.23733254	    -54.72071494	     -2.30061617	     10.27269473	    -30.84155304	      0.00000000	      0.00000000	      0.00000000
      2.07000000	     61.77688520	      0.66115196	     -3.60580319	      0.54228170	      1.00121834	     -0.29636556	     12.91560597	    -10.71782050	     20.88011812	      6.41804330	    -23.15145173	      5.23179783	    -22.98125784	     -3.78081598	     -7.36251103	      1.24218036	    -54.71773778	     -2.30188970	     10.27606288	    -30.84397463	      0.00000000	      0.00000000	      0.00000000
      2.08000000	     61.79603614	      0.66678926	     -3.59937906	      0.54227760	      1.00122488	     -0.29636509	     12.89825280	    -10.72485163	     20.86436994	      6.42423372	    -23.14809116	      5.22249837	    -22.96939807	     -3.80101719	     -7.35126195	      1.25201012	    -54.71185953	     -2.30479003	     10.27614400	    -30.85340189	      0.00000000	      0.00000000	      0.00000000
      2.09000000	     61.82703206	      0.67461408	     -3.59285655	      0.54226746	      1.00123988	     -0.29637237	     12.86531731	    -10.73459858	     20.84455785	      6.43340440	    -23.13789786	      5.21538123	    -22.95606388	     -3.83488523	     -7.33619446	      1.26163833	    -54.70577470	     -2.30826803	     10.27388166	    -30.86764823	      0.00000000	      0.00000000	      0.00000000
      2.10000000	     61.85947742	      0.68239305	     -3.58759457	      0.54225553	      1.00125786	     -0.29638323	     12.82914801	    -10.74343070	     20.82434066	      6.44150184	    -23.12075498	      5.21294151	    -22.93463603	     -3.87099236	     -7.32155282	      1.26785191	    -54.70088182	     -2.31142806	     10.27063519	    -30.88361606	      0.00000000	      0.00000000	      0.00000000
      2.11000000	     61.88549866	      0.68826168	     -3.58423552	      0.54224410	      1.00127520	     -0.29639343	     12.79991570	    -10.74834253	     20.80603952	      6.44499659	    -23.09582329	      5.21721782	    -22.89656789	     -3.90026072	     -7.31070873	      1.26945051	    -54.69759715	     -2.31375800	     10.26796799	    -30.89798202	      0.00000000	      0.00000000	      0.00000000
